<?xml version="1.0" encoding="UTF-8"?>
<svg xmlns="http://www.w3.org/2000/svg" viewBox="0 0 226.77 85.04">
  <defs>
    <style>
      .cls-1 {
        fill: #07a6de;
      }

      .cls-2 {
        fill: #004e89;
      }

      .cls-3 {
        fill: #181716;
      }
    </style>
  </defs>
  <g id="Ebene_1" data-name="Ebene 1">
    <g>
      <path class="cls-1" d="m42.41,33.2c-.07,0-8.5,0-8.5,0,.06,3.01,1.81,4.79,4.35,4.79,1.24,0,2.46-.41,3.67-1.17l1.04,2.02c-2,1.17-3.64,1.64-5.51,1.64-2.09,0-3.81-.7-5.14-1.99-1.47-1.43-2.34-3.57-2.34-5.9,0-2.16.79-4.12,2.09-5.44,1.27-1.26,2.99-1.99,5.02-1.99,2.51,0,4.29,1.05,5.25,3.22.48,1.11.76,2.46.79,4.33,0,.15,0,.5-.73.5Zm-2.63-2.66c-.14-2.05-1.02-3.3-2.71-3.3-1.84,0-2.99,1.43-3.11,4h5.84c0-.17-.03-.55-.03-.7Z"/>
      <path class="cls-2" d="m55.91,40.13v-8.36c0-1.46-.11-2.14-.45-2.75-.45-.85-1.21-1.23-2.29-1.23-1.38,0-2.43.61-2.91,1.78-.25.61-.34,1.29-.34,2.66v7.89h-3.75v-19h3.75v6.29c1.44-1.58,2.85-2.25,4.8-2.25,2.2,0,3.81.96,4.49,2.75.34.87.42,1.66.42,3.92v8.3h-3.73Z"/>
      <path class="cls-2" d="m74.99,33.2h-8.5c.06,3.01,1.81,4.79,4.35,4.79,1.24,0,2.46-.41,3.67-1.17l1.04,2.02c-2,1.17-3.64,1.64-5.51,1.64-2.09,0-3.81-.7-5.14-1.99-1.47-1.43-2.34-3.57-2.34-5.9,0-2.16.79-4.12,2.09-5.44,1.27-1.26,2.99-1.99,5.03-1.99,2.51,0,4.29,1.05,5.25,3.22.48,1.11.76,2.46.79,4.33,0,.15,0,.5-.73.5Zm-2.62-2.66c-.14-2.05-1.02-3.3-2.71-3.3-1.83,0-2.99,1.43-3.11,4h5.84c0-.17-.03-.55-.03-.7Z"/>
      <path class="cls-2" d="m86.42,40.13c-.25-.73-.31-.91-.34-1.96-1.5,1.84-3.16,2.31-4.52,2.31-2.23,0-4.07-1.78-4.07-4.24,0-1.81.99-3.24,2.57-4.21.9-.56,2.37-1.11,3.76-1.46.51-.12,1.83-.47,2.34-.56-.34-1.55-1.07-2.63-2.85-2.63-1.18,0-2.31.5-3.56,1.58l-1.21-1.81c1.69-1.37,3.44-1.99,5.59-1.99s3.78.64,4.74,1.99c.68.96.93,1.78.93,4.41v3.92c0,2.63.08,3.3.56,4.65h-3.95Zm-.25-7.92c-.48.09-.93.23-1.5.38-1.86.47-3.59,1.29-3.59,3.13,0,1.26.85,2.16,1.92,2.16,1.47,0,2.54-1.17,2.85-2.16.17-.53.37-1.31.34-2.1,0,0-.03-1.17-.03-1.4Z"/>
      <path class="cls-2" d="m93.6,40.13v-19h3.73v19h-3.73Z"/>
      <path class="cls-2" d="m106.01,40.48c-1.64,0-2.88-.61-3.61-1.69-.56-.85-.71-1.52-.71-3.77v-7.51h-1.98v-1.99h1.98v-4.38h3.73v4.38h3.7v1.99h-3.7v6.72c0,2.92.51,3.92,1.98,3.92.59,0,1.19-.15,1.78-.47l.65,1.87c-1.27.61-2.48.94-3.81.94Z"/>
      <path class="cls-2" d="m121.58,40.13v-8.36c0-1.46-.11-2.14-.45-2.75-.45-.85-1.21-1.23-2.29-1.23-1.38,0-2.43.61-2.91,1.78-.25.61-.34,1.29-.34,2.66v7.89h-3.75v-19h3.75v6.29c1.44-1.58,2.85-2.25,4.8-2.25,2.2,0,3.81.96,4.49,2.75.34.87.42,1.66.42,3.92v8.3h-3.72Z"/>
      <path class="cls-1" d="m132.49,40.48c-1.84,0-3.22-.5-4.69-1.69l1.21-2.05c1.16,1.02,2.03,1.46,3.02,1.46,1.18,0,2-.7,2-1.78,0-.96-.45-1.46-2.4-2.92-1.47-1.11-3.05-2.22-3.05-4.3,0-2.4,2.03-4.03,4.83-4.03,1.47,0,2.88.44,4.04,1.2l-1.1,1.84c-.74-.52-1.55-.82-2.37-.82-1.02,0-1.75.61-1.75,1.43,0,.76.51,1.26,1.95,2.37,2.88,2.16,3.61,3.1,3.61,4.91,0,2.6-2.23,4.38-5.31,4.38Z"/>
      <path class="cls-1" d="m150.2,40.13v-1.96c-1.41,1.61-2.85,2.31-4.83,2.31-2.2,0-3.78-.94-4.46-2.72-.34-.88-.42-1.73-.42-3.95v-8.3h3.73v8.36c0,1.46.11,2.13.45,2.75.45.85,1.21,1.23,2.29,1.23,1.38,0,2.37-.64,2.88-1.81.25-.61.37-1.26.37-2.66v-7.86h3.73v14.61h-3.73Z"/>
      <path class="cls-1" d="m157.94,40.13v-14.61h3.73v14.61h-3.73Z"/>
      <path class="cls-1" d="m168.99,40.48c-1.83,0-3.22-.5-4.69-1.69l1.21-2.05c1.16,1.02,2.03,1.46,3.02,1.46,1.18,0,2-.7,2-1.78,0-.96-.45-1.46-2.4-2.92-1.47-1.11-3.05-2.22-3.05-4.3,0-2.4,2.03-4.03,4.83-4.03,1.47,0,2.88.44,4.04,1.2l-1.1,1.84c-.73-.52-1.55-.82-2.37-.82-1.02,0-1.75.61-1.75,1.43,0,.76.51,1.26,1.95,2.37,2.88,2.16,3.61,3.1,3.61,4.91,0,2.6-2.23,4.38-5.31,4.38Z"/>
      <path class="cls-1" d="m180.68,40.48c-1.84,0-3.22-.5-4.69-1.69l1.21-2.05c1.16,1.02,2.03,1.46,3.02,1.46,1.18,0,2-.7,2-1.78,0-.96-.45-1.46-2.4-2.92-1.47-1.11-3.05-2.22-3.05-4.3,0-2.4,2.03-4.03,4.83-4.03,1.47,0,2.88.44,4.04,1.2l-1.1,1.84c-.73-.52-1.55-.82-2.37-.82-1.02,0-1.75.61-1.75,1.43,0,.76.51,1.26,1.95,2.37,2.88,2.16,3.62,3.1,3.62,4.91,0,2.6-2.23,4.38-5.31,4.38Z"/>
      <path class="cls-1" d="m200.36,33.2h-8.5c.06,3.01,1.81,4.79,4.35,4.79,1.24,0,2.46-.41,3.67-1.17l1.04,2.02c-2,1.17-3.64,1.64-5.5,1.64-2.09,0-3.81-.7-5.14-1.99-1.47-1.43-2.35-3.57-2.35-5.9,0-2.16.79-4.12,2.09-5.44,1.27-1.26,2.99-1.99,5.03-1.99,2.51,0,4.29,1.05,5.25,3.22.48,1.11.76,2.46.79,4.33,0,.15,0,.5-.73.5Zm-2.62-2.66c-.14-2.05-1.02-3.3-2.71-3.3-1.83,0-2.99,1.43-3.11,4h5.85c0-.17-.03-.55-.03-.7Z"/>
    </g>
  </g>
  <g id="Deutsch">
    <g>
      <path class="cls-3" d="m45.9,51.45v-4.67h.55v2.11l2.05-2.11h.69l-2.21,2.19,2.4,2.48h-.74l-2.19-2.33v2.33h-.55Z"/>
      <path class="cls-3" d="m49.69,49.69c0-1,.6-1.8,1.63-1.8,1.09,0,1.63.77,1.63,1.8s-.55,1.83-1.63,1.83c-.27,0-.51-.05-.71-.14-.61-.29-.92-.93-.92-1.69Zm1.63,1.41c.76,0,1.09-.74,1.09-1.41s-.3-1.37-1.09-1.37-1.08.7-1.08,1.37c0,.34.08.69.25.96.17.26.45.45.83.45Z"/>
      <path class="cls-3" d="m53.88,51.45v-2.67c0-.27,0-.55-.04-.82h.47l.02.6c.23-.45.58-.67,1.04-.67.58,0,.92.36,1.02.73.17-.43.61-.73,1.06-.73.71,0,1.09.51,1.09,1.18v2.37h-.51v-2.28c0-.47-.17-.84-.69-.84-.64,0-.87.63-.87,1.24v1.88h-.51v-2.28c0-.47-.16-.84-.69-.84-.64,0-.88.63-.88,1.24v1.88h-.51Z"/>
      <path class="cls-3" d="m59.66,52.96v-3.83c0-.41-.01-.78-.04-1.17h.48l.03.61c.19-.41.64-.68,1.11-.68,1.06,0,1.41.88,1.41,1.8s-.38,1.83-1.42,1.83c-.46,0-.89-.23-1.06-.64v2.08h-.51Zm1.48-1.87c.78,0,.97-.76.97-1.4s-.18-1.37-.97-1.37c-.73,0-.99.75-.99,1.37,0,.31.06.65.21.93.16.27.41.47.78.47Z"/>
      <path class="cls-3" d="m63.94,49.77c0,.67.36,1.34,1.23,1.34.34,0,.7-.1.96-.27l.02.46c-.3.15-.65.22-.98.22-1.2,0-1.76-.79-1.76-1.83,0-.89.51-1.8,1.55-1.8s1.39.87,1.39,1.79v.08h-2.42Zm1.92-.38c-.04-.48-.21-1.09-.89-1.09s-1.01.59-1.03,1.09h1.92Z"/>
      <path class="cls-3" d="m68.85,51.42c-.18.08-.38.11-.57.11-.71,0-.81-.52-.81-1.16v-2.01h-.66v-.4h.66v-.78l.5-.17v.96h.79v.4h-.79v2.14c0,.31.08.58.45.58.14,0,.26-.04.39-.09l.03.43Z"/>
      <path class="cls-3" d="m69.87,49.77c0,.67.36,1.34,1.23,1.34.34,0,.7-.1.96-.27l.02.46c-.3.15-.65.22-.98.22-1.21,0-1.77-.79-1.77-1.83,0-.89.51-1.8,1.55-1.8s1.39.87,1.39,1.79v.08h-2.42Zm1.92-.38c-.03-.48-.21-1.09-.89-1.09s-1.01.59-1.03,1.09h1.92Z"/>
      <path class="cls-3" d="m73.15,51.45v-2.67c0-.27,0-.55-.04-.82h.47l.02.6c.25-.45.62-.67,1.13-.67.9,0,1.17.59,1.17,1.39v2.16h-.5v-2.07c0-.55-.11-1.06-.78-1.06-.73,0-.95.63-.95,1.25v1.88h-.51Z"/>
      <path class="cls-3" d="m76.71,51.45v-.41l1.97-2.67h-1.89v-.41h2.47v.41l-1.97,2.67h1.98v.41h-2.56Z"/>
      <path class="cls-3" d="m79.77,49.51v-.46h1.7v.46h-1.7Z"/>
      <path class="cls-3" d="m84.64,50.03c0,.55.11,1.06.77,1.06.73,0,.95-.63.95-1.25v-1.88h.5v2.67c0,.27,0,.55.04.82h-.47v-.6c-.26.45-.63.68-1.14.68-.89,0-1.16-.6-1.16-1.41v-2.16h.51v2.07Z"/>
      <path class="cls-3" d="m88.01,51.45v-2.67c0-.27,0-.55-.04-.82h.47l.02.6c.25-.45.62-.67,1.13-.67.9,0,1.17.59,1.17,1.39v2.16h-.5v-2.07c0-.55-.11-1.06-.78-1.06-.73,0-.95.63-.95,1.25v1.88h-.51Z"/>
      <path class="cls-3" d="m94.25,51.45l-.04-.58c-.22.45-.61.66-1.09.66-1.04,0-1.42-.94-1.42-1.83s.39-1.8,1.44-1.8c.44,0,.88.25,1.05.66v-2.15h.51v3.94c0,.38.01.74.04,1.11h-.48Zm-1.04-.36c.74,0,.98-.78.98-1.39s-.26-1.37-.99-1.37c-.79,0-.97.73-.97,1.37,0,.32.05.67.2.94.15.26.38.46.78.46Z"/>
      <path class="cls-3" d="m97.68,51.45v-4.67h.55v2.11l2.04-2.11h.69l-2.21,2.19,2.4,2.48h-.74l-2.19-2.33v2.33h-.55Z"/>
      <path class="cls-3" d="m101.48,49.69c0-1,.59-1.8,1.63-1.8,1.09,0,1.63.77,1.63,1.8s-.55,1.83-1.63,1.83c-.27,0-.51-.05-.71-.14-.61-.29-.92-.93-.92-1.69Zm1.63,1.41c.76,0,1.08-.74,1.08-1.41s-.3-1.37-1.08-1.37-1.09.7-1.09,1.37c0,.34.08.69.25.96.18.26.45.45.83.45Z"/>
      <path class="cls-3" d="m105.48,49.69c0-1,.6-1.8,1.63-1.8,1.09,0,1.63.77,1.63,1.8s-.55,1.83-1.63,1.83c-.27,0-.51-.05-.71-.14-.61-.29-.92-.93-.92-1.69Zm1.63,1.41c.76,0,1.09-.74,1.09-1.41s-.3-1.37-1.09-1.37-1.08.7-1.08,1.37c0,.34.08.69.25.96.17.26.45.45.83.45Z"/>
      <path class="cls-3" d="m109.67,51.45v-2.67c0-.27,0-.55-.04-.82h.47l.03.66c.13-.36.5-.73.92-.73.11,0,.19,0,.29.03l-.03.51c-.09-.03-.19-.04-.28-.04-.71,0-.86.78-.86,1.33v1.73h-.51Z"/>
      <path class="cls-3" d="m114.41,51.45l-.04-.58c-.22.45-.61.66-1.09.66-1.04,0-1.42-.94-1.42-1.83s.39-1.8,1.44-1.8c.44,0,.88.25,1.05.66v-2.15h.51v3.94c0,.38.01.74.04,1.11h-.48Zm-1.04-.36c.74,0,.98-.78.98-1.39s-.26-1.37-.99-1.37c-.79,0-.97.73-.97,1.37,0,.32.05.67.2.94.15.26.38.46.78.46Z"/>
      <path class="cls-3" d="m115.98,47.18v-.61h.51v.61h-.51Zm0,4.27v-3.49h.51v3.49h-.51Z"/>
      <path class="cls-3" d="m117.62,51.45v-2.67c0-.27,0-.55-.04-.82h.47l.02.6c.25-.45.62-.67,1.13-.67.9,0,1.17.59,1.17,1.39v2.16h-.5v-2.07c0-.55-.11-1.06-.79-1.06-.73,0-.95.63-.95,1.25v1.88h-.51Z"/>
      <path class="cls-3" d="m123.45,51.45l-.02-.56c-.2.45-.64.64-1.09.64-.62,0-1.14-.33-1.14-1.04,0-.9.78-1.16,1.81-1.16h.39v-.17c0-.53-.2-.86-.78-.86-.36,0-.69.1-.99.29l-.04-.46c.3-.15.72-.25,1.05-.25.88,0,1.27.43,1.27,1.3v1.51c0,.26,0,.5.04.74h-.5Zm-.31-1.75c-.65,0-1.41.07-1.41.77,0,.47.33.64.67.64.74,0,1-.56,1-1.21v-.21h-.26Z"/>
      <path class="cls-3" d="m126.64,51.42c-.18.08-.38.11-.57.11-.71,0-.81-.52-.81-1.16v-2.01h-.66v-.4h.66v-.78l.5-.17v.96h.79v.4h-.79v2.14c0,.31.08.58.45.58.14,0,.26-.04.39-.09l.03.43Z"/>
      <path class="cls-3" d="m127.41,47.18v-.61h.51v.61h-.51Zm0,4.27v-3.49h.51v3.49h-.51Z"/>
      <path class="cls-3" d="m128.86,49.69c0-1,.6-1.8,1.63-1.8,1.09,0,1.63.77,1.63,1.8s-.55,1.83-1.63,1.83c-.27,0-.51-.05-.71-.14-.61-.29-.92-.93-.92-1.69Zm1.63,1.41c.76,0,1.09-.74,1.09-1.41s-.3-1.37-1.09-1.37-1.08.7-1.08,1.37c0,.34.08.69.25.96.17.26.45.45.83.45Z"/>
      <path class="cls-3" d="m133.05,51.45v-2.67c0-.27,0-.55-.04-.82h.47l.02.6c.25-.45.62-.67,1.13-.67.9,0,1.17.59,1.17,1.39v2.16h-.5v-2.07c0-.55-.11-1.06-.79-1.06-.73,0-.95.63-.95,1.25v1.88h-.51Z"/>
      <path class="cls-3" d="m136.72,50.89c.28.15.54.22.85.22.39,0,.67-.19.67-.58,0-.85-1.51-.6-1.51-1.67,0-.7.58-.97,1.13-.97.29,0,.55.06.79.15l-.07.44c-.22-.1-.47-.17-.71-.17-.27,0-.62.1-.62.53,0,.7,1.52.48,1.52,1.65,0,.67-.57,1.04-1.18,1.04-.34,0-.64-.04-.92-.16l.06-.48Z"/>
      <path class="cls-3" d="m139.53,50.89c.28.15.54.22.85.22.39,0,.67-.19.67-.58,0-.85-1.51-.6-1.51-1.67,0-.7.58-.97,1.13-.97.29,0,.55.06.79.15l-.07.44c-.22-.1-.47-.17-.71-.17-.27,0-.62.1-.62.53,0,.7,1.52.48,1.52,1.65,0,.67-.57,1.04-1.18,1.04-.34,0-.64-.04-.92-.16l.06-.48Z"/>
      <path class="cls-3" d="m144.21,51.42c-.18.08-.38.11-.57.11-.71,0-.81-.52-.81-1.16v-2.01h-.66v-.4h.66v-.78l.5-.17v.96h.79v.4h-.79v2.14c0,.31.08.58.45.58.14,0,.26-.04.39-.09l.03.43Z"/>
      <path class="cls-3" d="m145.23,49.77c0,.67.36,1.34,1.23,1.34.34,0,.7-.1.96-.27l.02.46c-.3.15-.65.22-.98.22-1.2,0-1.76-.79-1.76-1.83,0-.89.51-1.8,1.55-1.8s1.39.87,1.39,1.79v.08h-2.42Zm1.92-.38c-.04-.48-.21-1.09-.89-1.09s-1.01.59-1.03,1.09h1.92Z"/>
      <path class="cls-3" d="m148.52,51.45v-5.05h.51v5.05h-.51Z"/>
      <path class="cls-3" d="m150.15,51.45v-5.05h.51v5.05h-.51Z"/>
      <path class="cls-3" d="m152.12,49.77c0,.67.36,1.34,1.23,1.34.34,0,.7-.1.96-.27l.02.46c-.3.15-.65.22-.98.22-1.2,0-1.76-.79-1.76-1.83,0-.89.51-1.8,1.55-1.8s1.39.87,1.39,1.79v.08h-2.42Zm1.92-.38c-.04-.48-.21-1.09-.89-1.09s-1.01.59-1.03,1.09h1.92Z"/>
      <path class="cls-3" d="m46.55,59.85l-1.17-3.49h.55l.93,3.04.94-3.04h.53l-1.18,3.49h-.6Z"/>
      <path class="cls-3" d="m48.77,58.09c0-1,.59-1.8,1.63-1.8,1.09,0,1.63.77,1.63,1.8s-.55,1.83-1.63,1.83c-.27,0-.51-.05-.71-.14-.61-.29-.92-.93-.92-1.69Zm1.63,1.41c.76,0,1.08-.74,1.08-1.41s-.3-1.37-1.08-1.37-1.09.7-1.09,1.37c0,.34.08.69.25.96.18.26.45.45.83.45Z"/>
      <path class="cls-3" d="m52.96,59.85v-2.67c0-.27,0-.55-.04-.82h.47l.02.6c.25-.45.62-.67,1.13-.67.9,0,1.17.59,1.17,1.39v2.16h-.5v-2.07c0-.55-.11-1.06-.78-1.06-.73,0-.95.63-.95,1.25v1.88h-.51Z"/>
      <path class="cls-3" d="m58.71,59.85v-4.67h1.24c.76,0,1.5.27,1.5,1.16,0,.58-.34.94-.9,1.07.59.09,1.03.5,1.03,1.11,0,1.07-.92,1.33-1.81,1.33h-1.06Zm.55-2.63h.53c.57,0,1.1-.19,1.1-.85,0-.59-.49-.76-.99-.76h-.64v1.6Zm0,2.2h.5c.59,0,1.25-.15,1.25-.88,0-.78-.71-.91-1.33-.91h-.42v1.79Z"/>
      <path class="cls-3" d="m63.1,58.43c0,.55.11,1.06.77,1.06.73,0,.95-.63.95-1.25v-1.88h.5v2.67c0,.27,0,.55.04.82h-.47v-.6c-.26.45-.63.68-1.14.68-.89,0-1.16-.6-1.16-1.41v-2.16h.51v2.07Z"/>
      <path class="cls-3" d="m66.47,59.85v-2.67c0-.27,0-.55-.04-.82h.47l.02.6c.25-.45.62-.67,1.13-.67.9,0,1.17.59,1.17,1.39v2.16h-.5v-2.07c0-.55-.11-1.06-.78-1.06-.73,0-.95.63-.95,1.25v1.88h-.51Z"/>
      <path class="cls-3" d="m72.71,59.85l-.04-.58c-.22.45-.61.66-1.09.66-1.04,0-1.42-.94-1.42-1.83s.39-1.8,1.44-1.8c.44,0,.88.25,1.05.66v-2.15h.51v3.94c0,.38.01.74.04,1.11h-.48Zm-1.04-.36c.74,0,.98-.78.98-1.39s-.26-1.37-.99-1.37c-.79,0-.97.73-.97,1.37,0,.32.05.67.2.94.15.26.39.46.78.46Z"/>
      <path class="cls-3" d="m76.56,58.43c0,.55.11,1.06.77,1.06.73,0,.95-.63.95-1.25v-1.88h.5v2.67c0,.27,0,.55.04.82h-.47v-.6c-.26.45-.63.68-1.14.68-.89,0-1.16-.6-1.16-1.41v-2.16h.51v2.07Z"/>
      <path class="cls-3" d="m79.92,59.85v-2.67c0-.27,0-.55-.04-.82h.47l.02.6c.25-.45.62-.67,1.13-.67.9,0,1.17.59,1.17,1.39v2.16h-.5v-2.07c0-.55-.11-1.06-.78-1.06-.73,0-.95.63-.95,1.25v1.88h-.51Z"/>
      <path class="cls-3" d="m86.16,59.85l-.04-.58c-.22.45-.61.66-1.09.66-1.04,0-1.42-.94-1.42-1.83s.39-1.8,1.44-1.8c.44,0,.88.25,1.05.66v-2.15h.51v3.94c0,.38.01.74.04,1.11h-.48Zm-1.04-.36c.74,0,.98-.78.98-1.39s-.26-1.37-.99-1.37c-.79,0-.97.73-.97,1.37,0,.32.05.67.2.94.15.26.38.46.78.46Z"/>
      <path class="cls-3" d="m89.6,59.85v-4.67h.55v2.11l2.04-2.11h.69l-2.21,2.19,2.4,2.48h-.74l-2.19-2.33v2.33h-.55Z"/>
      <path class="cls-3" d="m95.76,59.85l-.02-.56c-.2.45-.64.64-1.09.64-.62,0-1.14-.33-1.14-1.04,0-.9.78-1.16,1.81-1.16h.39v-.17c0-.53-.2-.86-.78-.86-.36,0-.69.1-.99.29l-.04-.46c.3-.15.72-.25,1.05-.25.88,0,1.27.43,1.27,1.3v1.51c0,.26,0,.5.04.74h-.5Zm-.31-1.75c-.65,0-1.42.07-1.42.77,0,.47.33.64.67.64.74,0,1-.56,1-1.21v-.21h-.26Z"/>
      <path class="cls-3" d="m97.33,59.85v-2.67c0-.27,0-.55-.04-.82h.47l.02.6c.25-.45.62-.67,1.13-.67.9,0,1.17.59,1.17,1.39v2.16h-.5v-2.07c0-.55-.11-1.06-.78-1.06-.73,0-.95.63-.95,1.25v1.88h-.51Z"/>
      <path class="cls-3" d="m102.81,59.82c-.17.08-.38.11-.57.11-.71,0-.81-.52-.81-1.16v-2.01h-.66v-.4h.66v-.78l.5-.17v.96h.79v.4h-.79v2.14c0,.31.08.58.45.58.14,0,.26-.04.39-.09l.03.43Z"/>
      <path class="cls-3" d="m103.3,58.09c0-1,.59-1.8,1.63-1.8,1.09,0,1.63.77,1.63,1.8s-.55,1.83-1.63,1.83c-.27,0-.51-.05-.71-.14-.61-.29-.92-.93-.92-1.69Zm1.63,1.41c.76,0,1.08-.74,1.08-1.41s-.3-1.37-1.08-1.37-1.09.7-1.09,1.37c0,.34.08.69.25.96.18.26.45.45.83.45Z"/>
      <path class="cls-3" d="m107.49,59.85v-2.67c0-.27,0-.55-.04-.82h.47l.02.6c.25-.45.62-.67,1.13-.67.9,0,1.17.59,1.17,1.39v2.16h-.5v-2.07c0-.55-.11-1.06-.78-1.06-.73,0-.95.63-.95,1.25v1.88h-.51Z"/>
      <path class="cls-3" d="m111.69,58.17c0,.67.36,1.34,1.23,1.34.34,0,.7-.1.96-.27l.02.46c-.3.15-.65.22-.98.22-1.21,0-1.77-.79-1.77-1.83,0-.89.51-1.8,1.55-1.8s1.39.87,1.39,1.79v.08h-2.42Zm1.92-.38c-.03-.48-.21-1.09-.89-1.09s-1.01.59-1.03,1.09h1.92Z"/>
      <path class="cls-3" d="m114.97,59.85v-2.67c0-.27,0-.55-.04-.82h.47l.02.6c.25-.45.62-.67,1.13-.67.9,0,1.17.59,1.17,1.39v2.16h-.5v-2.07c0-.55-.11-1.06-.79-1.06-.73,0-.95.63-.95,1.25v1.88h-.51Z"/>
    </g>
  </g>
</svg>